<svg width="582" height="194" viewBox="0 0 582 194" fill="none" xmlns="http://www.w3.org/2000/svg">
<path d="M175.082 122.629V161.866H146.887V191H106.946V161.866H0.747575V122.629L104.596 3.0388H146.887V122.629H175.082ZM46.3282 122.629H106.946V50.499L46.3282 122.629ZM288.985 193.35C276.298 193.35 262.906 189.747 248.809 182.542C234.712 175.18 222.807 164.216 213.096 149.649C203.385 134.925 198.529 117.304 198.529 96.7844C198.529 76.2654 203.385 58.8006 213.096 44.3903C222.807 29.8233 234.712 18.9372 248.809 11.732C262.906 4.37019 276.298 0.689277 288.985 0.689277C301.673 0.689277 315.378 4.37019 330.102 11.732C344.982 18.9372 357.591 29.8233 367.929 44.3903C378.424 58.9573 383.671 76.422 383.671 96.7844C383.671 117.304 378.424 134.847 367.929 149.414C357.591 163.981 344.982 174.945 330.102 182.307C315.378 189.669 301.673 193.35 288.985 193.35ZM288.985 153.173C298.697 153.173 307.703 150.823 316.005 146.124C324.463 141.425 331.198 134.847 336.211 126.388C341.38 117.773 343.964 107.905 343.964 96.7844C343.964 85.82 341.38 76.1087 336.211 67.6505C331.198 59.0356 324.463 52.4569 316.005 47.9145C307.703 43.2155 298.697 40.866 288.985 40.866C279.117 40.866 270.346 43.2155 262.671 47.9145C254.996 52.4569 248.965 58.9573 244.58 67.4155C240.35 75.8738 238.236 85.6634 238.236 96.7844C238.236 108.062 240.35 118.008 244.58 126.623C248.965 135.082 254.996 141.66 262.671 146.359C270.346 150.902 279.117 153.173 288.985 153.173ZM581.428 122.629V161.866H553.234V191H513.292V161.866H407.094V122.629L510.943 3.0388H553.234V122.629H581.428ZM452.675 122.629H513.292V50.499L452.675 122.629Z" fill="#A59389"/>
</svg>
