<svg width="14" height="14" viewBox="0 0 14 14" fill="none" xmlns="http://www.w3.org/2000/svg">
<path d="M1.74371 4.30495C1.45788 4.59079 1.45788 5.05162 1.74371 5.33745L6.59121 10.185C6.64518 10.239 6.70928 10.2819 6.77985 10.3112C6.85041 10.3405 6.92606 10.3555 7.00246 10.3555C7.07886 10.3555 7.15451 10.3405 7.22507 10.3112C7.29564 10.2819 7.35974 10.239 7.41371 10.185L12.2612 5.33745C12.547 5.05162 12.547 4.59079 12.2612 4.30495C11.9754 4.01912 11.5145 4.01912 11.2287 4.30495L6.99954 8.52829L2.77038 4.29912C2.49038 4.01912 2.02371 4.01912 1.74371 4.30495Z" fill="black"/>
</svg>
