<svg width="14" height="15" viewBox="0 0 14 15" fill="none" xmlns="http://www.w3.org/2000/svg">
<path d="M4.30495 12.7558C4.59079 13.0416 5.05162 13.0416 5.33745 12.7558L10.185 7.9083C10.239 7.85433 10.2819 7.79023 10.3112 7.71967C10.3405 7.6491 10.3555 7.57345 10.3555 7.49705C10.3555 7.42065 10.3405 7.345 10.3112 7.27444C10.2819 7.20387 10.239 7.13977 10.185 7.0858L5.33745 2.2383C5.05162 1.95247 4.59079 1.95247 4.30495 2.2383C4.01912 2.52413 4.01912 2.98497 4.30495 3.2708L8.52829 7.49997L4.29912 11.7291C4.01912 12.0091 4.01912 12.4758 4.30495 12.7558Z" fill="black"/>
</svg>
