<svg width="44" height="44" viewBox="0 0 44 44" fill="none" xmlns="http://www.w3.org/2000/svg">
<path d="M18.3347 40.3333C21.5144 40.3325 24.6077 39.2983 27.1485 37.3867C29.6894 35.475 31.5402 32.7894 32.422 29.7344C33.3039 26.6794 33.1691 23.4206 32.0379 20.449C30.9067 17.4773 28.8404 14.9537 26.1504 13.2584C23.4603 11.5632 20.2921 10.788 17.1232 11.0498C13.9543 11.3116 10.9563 12.5961 8.58091 14.7099C6.2055 16.8236 4.58135 19.6521 3.95316 22.7691C3.32496 25.8861 3.72676 29.1229 5.098 31.9917C5.41333 32.6517 5.52333 33.396 5.33633 34.1L4.735 36.3495C4.62696 36.7534 4.62706 37.1786 4.73528 37.5824C4.84351 37.9862 5.05605 38.3544 5.35158 38.6502C5.6471 38.9459 6.01522 39.1586 6.41897 39.2671C6.82272 39.3756 7.2479 39.376 7.65183 39.2682L9.90133 38.665C10.6101 38.4908 11.3577 38.5753 12.0097 38.9033C13.9255 39.82 16.0705 40.3333 18.3365 40.3333H18.3347Z" stroke="#A59389" stroke-width="1.5"/>
<path opacity="0.5" d="M33.0013 26.5871C33.1232 26.536 33.2442 26.4828 33.3643 26.4276C34.028 26.1251 34.7723 26.0114 35.4781 26.2003L36.3508 26.4331C36.7547 26.5411 37.1799 26.541 37.5837 26.4328C37.9875 26.3246 38.3557 26.1121 38.6514 25.8165C38.9472 25.521 39.1599 25.1529 39.2684 24.7491C39.3769 24.3454 39.3773 23.9202 39.2695 23.5163L39.0348 22.6436C38.846 21.9378 38.9615 21.1934 39.264 20.5298C39.8902 19.0953 40.2277 17.5516 40.2573 15.9867C40.2869 14.4219 40.008 12.8665 39.4365 11.4094C38.865 9.95229 38.0121 8.62203 36.9265 7.49456C35.8409 6.36709 34.5439 5.46448 33.1095 4.83827C31.675 4.21206 30.1313 3.87452 28.5664 3.84491C27.0016 3.8153 25.4462 4.0942 23.9891 4.6657C22.532 5.2372 21.2017 6.0901 20.0743 7.1757C18.9468 8.2613 18.0442 9.55834 17.418 10.9928" stroke="#A59389" stroke-width="1.5"/>
<path opacity="0.5" d="M11.9492 25.667H11.9676M18.3494 25.667H18.3659M24.7496 25.667H24.7661" stroke="#A59389" stroke-width="2" stroke-linecap="round" stroke-linejoin="round"/>
</svg>
