<svg width="44" height="44" viewBox="0 0 44 44" fill="none" xmlns="http://www.w3.org/2000/svg">
<path d="M18.3337 40.3333C21.5134 40.3325 24.6067 39.2983 27.1475 37.3867C29.6884 35.475 31.5392 32.7894 32.4211 29.7344C33.3029 26.6794 33.1681 23.4206 32.0369 20.449C30.9057 17.4773 28.8395 14.9537 26.1494 13.2584C23.4593 11.5632 20.2911 10.788 17.1222 11.0498C13.9533 11.3116 10.9553 12.5961 8.57993 14.7099C6.20452 16.8236 4.58037 19.6521 3.95218 22.7691C3.32399 25.8861 3.72578 29.1229 5.09702 31.9917C5.41236 32.6517 5.52236 33.396 5.33536 34.1L4.73402 36.3495C4.62599 36.7534 4.62608 37.1786 4.73431 37.5824C4.84253 37.9862 5.05507 38.3544 5.3506 38.6502C5.64613 38.9459 6.01424 39.1586 6.41799 39.2671C6.82174 39.3756 7.24692 39.376 7.65086 39.2682L9.90036 38.665C10.6091 38.4908 11.3567 38.5753 12.0087 38.9033C13.9245 39.82 16.0695 40.3333 18.3355 40.3333H18.3337Z" stroke="black" stroke-width="1.5"/>
<path opacity="0.5" d="M33.0004 26.587C33.1223 26.5358 33.2433 26.4827 33.3634 26.4275C34.0271 26.125 34.7714 26.0113 35.4772 26.2001L36.3499 26.433C36.7538 26.541 37.1789 26.5409 37.5828 26.4327C37.9866 26.3245 38.3548 26.1119 38.6505 25.8164C38.9462 25.5209 39.159 25.1528 39.2675 24.749C39.376 24.3453 39.3763 23.9201 39.2686 23.5161L39.0339 22.6435C38.8451 21.9376 38.9606 21.1933 39.2631 20.5296C39.8893 19.0952 40.2268 17.5515 40.2564 15.9866C40.286 14.4217 40.0071 12.8663 39.4356 11.4093C38.8641 9.95217 38.0112 8.62191 36.9256 7.49444C35.84 6.36696 34.543 5.46435 33.1086 4.83815C31.6741 4.21194 30.1304 3.87439 28.5655 3.84478C27.0006 3.81518 25.4453 4.09408 23.9882 4.66558C22.5311 5.23708 21.2008 6.08998 20.0733 7.17558C18.9459 8.26118 18.0433 9.55822 17.4171 10.9926" stroke="black" stroke-width="1.5"/>
<path opacity="0.5" d="M11.95 25.6666H11.9683M18.3502 25.6666H18.3667M24.7503 25.6666H24.7668" stroke="black" stroke-width="2" stroke-linecap="round" stroke-linejoin="round"/>
</svg>
