<svg width="44" height="44" viewBox="0 0 44 44" fill="none" xmlns="http://www.w3.org/2000/svg">
<path d="M38.3941 5.60633C42.9225 10.1328 39.2521 21.142 30.1991 30.1968C21.1425 39.2517 10.1333 42.9202 5.60681 38.3937C1.07847 33.8653 4.74881 22.858 13.8036 13.8032C22.8585 4.74832 33.8676 1.07982 38.3941 5.60633ZM5.60681 5.60633C1.07847 10.1347 4.74881 21.1438 13.8018 30.1968C22.8585 39.2517 33.8676 42.9202 38.3941 38.3937C42.9225 33.8672 39.2521 22.858 30.1973 13.8032C21.1425 4.74832 10.1333 1.07982 5.60681 5.60633Z" stroke="black" stroke-width="1.5"/>
<path opacity="0.5" d="M26.5838 22C26.5838 23.2155 26.1009 24.3813 25.2414 25.2409C24.3818 26.1004 23.216 26.5833 22.0004 26.5833C20.7849 26.5833 19.6191 26.1004 18.7595 25.2409C17.9 24.3813 17.4171 23.2155 17.4171 22C17.4171 20.7844 17.9 19.6186 18.7595 18.7591C19.6191 17.8995 20.7849 17.4166 22.0004 17.4166C23.216 17.4166 24.3818 17.8995 25.2414 18.7591C26.1009 19.6186 26.5838 20.7844 26.5838 22Z" stroke="black" stroke-width="1.5"/>
</svg>
