<svg width="44" height="44" viewBox="0 0 44 44" fill="none" xmlns="http://www.w3.org/2000/svg">
<path d="M2.75 14C2.75 7.7868 7.7868 2.75 14 2.75H30C36.2132 2.75 41.25 7.7868 41.25 14V25.6176C41.25 31.4897 36.4897 36.25 30.6176 36.25C28.7372 36.25 26.9508 37.0717 25.7271 38.4993L23.7083 40.8545C22.8104 41.9021 21.1896 41.9021 20.2917 40.8545L18.2729 38.4993C17.0492 37.0717 15.2628 36.25 13.3824 36.25C7.51029 36.25 2.75 31.4897 2.75 25.6176V14Z" stroke="black" stroke-width="1.5"/>
<path opacity="0.5" d="M14.8162 14C16.8162 11.2 20.3162 13.1667 21.8162 14.5C23.3164 13.0001 26.3164 11 28.8164 14C31.3971 17.0968 27.3164 24.5 21.8162 27.0001C15.8162 24.5001 12.3162 17.5 14.8162 14Z" stroke="black" stroke-width="1.5"/>
</svg>
