<svg width="45" height="44" viewBox="0 0 45 44" fill="none" xmlns="http://www.w3.org/2000/svg">
<path d="M38.7951 5.60645C43.3235 10.1329 39.6531 21.1421 30.6001 30.1969C21.5435 39.2518 10.5343 42.9203 6.00781 38.3938C1.47948 33.8654 5.14981 22.8581 14.2046 13.8033C23.2595 4.74845 34.2686 1.07995 38.7951 5.60645ZM6.00781 5.60645C1.47948 10.1348 5.14981 21.1439 14.2028 30.1969C23.2595 39.2518 34.2686 42.9203 38.7951 38.3938C43.3235 33.8673 39.6531 22.8581 30.5983 13.8033C21.5435 4.74845 10.5343 1.07995 6.00781 5.60645Z" stroke="#A59389" stroke-width="1.5"/>
<path opacity="0.5" d="M26.9848 22.0001C26.9848 23.2157 26.5019 24.3814 25.6424 25.241C24.7828 26.1005 23.617 26.5834 22.4014 26.5834C21.1859 26.5834 20.0201 26.1005 19.1605 25.241C18.301 24.3814 17.8181 23.2157 17.8181 22.0001C17.8181 20.7845 18.301 19.6187 19.1605 18.7592C20.0201 17.8996 21.1859 17.4167 22.4014 17.4167C23.617 17.4167 24.7828 17.8996 25.6424 18.7592C26.5019 19.6187 26.9848 20.7845 26.9848 22.0001Z" stroke="#A59389" stroke-width="1.5"/>
</svg>
