<svg width="45" height="44" viewBox="0 0 45 44" fill="none" xmlns="http://www.w3.org/2000/svg">
<path d="M2.95001 14C2.95001 7.7868 7.98681 2.75 14.2 2.75H30.2C36.4132 2.75 41.45 7.7868 41.45 14V25.6176C41.45 31.4897 36.6897 36.25 30.8176 36.25C28.9372 36.25 27.1508 37.0717 25.9271 38.4993L23.9083 40.8545C23.0104 41.9021 21.3897 41.9021 20.4917 40.8545L18.473 38.4993C17.2492 37.0717 15.4628 36.25 13.5824 36.25C7.71031 36.25 2.95001 31.4897 2.95001 25.6176V14Z" stroke="#A59389" stroke-width="1.5"/>
<path opacity="0.5" d="M15.0162 14.0001C17.0162 11.2001 20.5162 13.1668 22.0162 14.5001C23.5164 13.0002 26.5164 11.0001 29.0164 14.0001C31.5971 17.0969 27.5164 24.5002 22.0162 27.0002C16.0162 24.5002 12.5162 17.5001 15.0162 14.0001Z" stroke="#A59389" stroke-width="1.5"/>
</svg>
