<svg width="29" height="29" viewBox="0 0 29 29" fill="none" xmlns="http://www.w3.org/2000/svg">
<path d="M27.4834 21.4437V21.4436V7.82907V7.82899C27.4815 6.15536 26.8158 4.55081 25.6323 3.36737C24.4489 2.18394 22.8444 1.51825 21.1707 1.51635H21.1706H7.55609L7.55601 1.51635C5.88238 1.51825 4.27783 2.18394 3.09439 3.36737C1.91096 4.55081 1.24527 6.15536 1.24337 7.82899V7.82907V21.4436L1.24337 21.4437C1.24527 23.1173 1.91096 24.7219 3.09439 25.9053C4.27783 27.0888 5.88238 27.7544 7.55601 27.7563H7.55609H21.1706H21.1707C22.8444 27.7544 24.4489 27.0888 25.6323 25.9053C26.8158 24.7219 27.4815 23.1173 27.4834 21.4437ZM10.937 9.50845C11.9512 8.83079 13.1435 8.46909 14.3633 8.46907C15.9984 8.47093 17.566 9.1213 18.7222 10.2775C19.8784 11.4337 20.5288 13.0013 20.5306 14.6364C20.5306 15.8562 20.1689 17.0485 19.4913 18.0627C18.8136 19.0769 17.8504 19.8674 16.7235 20.3342C15.5966 20.8009 14.3565 20.9231 13.1602 20.6851C11.9639 20.4472 10.865 19.8598 10.0024 18.9973C9.13994 18.1348 8.55256 17.0359 8.3146 15.8395C8.07663 14.6432 8.19876 13.4032 8.66555 12.2762C9.13234 11.1493 9.92281 10.1861 10.937 9.50845ZM11.4865 18.9418C12.3381 19.5108 13.3392 19.8145 14.3634 19.8145C15.7367 19.8145 17.0538 19.269 18.0249 18.2979C18.996 17.3268 19.5415 16.0097 19.5415 14.6363C19.5415 13.6122 19.2379 12.6111 18.6689 11.7595C18.0999 10.908 17.2912 10.2443 16.345 9.85233C15.3988 9.46041 14.3576 9.35786 13.3532 9.55766C12.3487 9.75746 11.426 10.2506 10.7018 10.9748C9.97766 11.699 9.48448 12.6217 9.28468 13.6261C9.08488 14.6306 9.18743 15.6718 9.57935 16.618C9.97128 17.5641 10.635 18.3729 11.4865 18.9418ZM2.39542 2.6684C3.76431 1.29951 5.62028 0.529486 7.55618 0.527256L21.1706 0.527256C23.1065 0.529496 24.9624 1.29952 26.3313 2.6684C27.7002 4.03729 28.4702 5.89326 28.4725 7.82916V21.4435C28.4702 23.3794 27.7002 25.2354 26.3313 26.6043C24.9624 27.9732 23.1065 28.7432 21.1706 28.7454H7.55618C5.62028 28.7432 3.76431 27.9732 2.39542 26.6043C1.02653 25.2354 0.256506 23.3794 0.254276 21.4435L0.254276 7.82912C0.256516 5.89323 1.02654 4.03728 2.39542 2.6684ZM22.7997 7.2618C22.7997 7.47181 22.7375 7.6771 22.6208 7.85172C22.5041 8.02633 22.3383 8.16243 22.1443 8.24279C21.9502 8.32316 21.7367 8.34419 21.5308 8.30322C21.3248 8.26225 21.1356 8.16112 20.9871 8.01262C20.8386 7.86412 20.7375 7.67492 20.6965 7.46895C20.6555 7.26298 20.6766 7.04948 20.7569 6.85546C20.8373 6.66144 20.9734 6.49561 21.148 6.37893C21.3226 6.26226 21.5279 6.19998 21.7379 6.19998C22.0195 6.19998 22.2896 6.31185 22.4887 6.51098C22.6879 6.71011 22.7997 6.98019 22.7997 7.2618Z" fill="black" stroke="white" stroke-width="0.145455"/>
</svg>
