<svg width="45" height="44" viewBox="0 0 45 44" fill="none" xmlns="http://www.w3.org/2000/svg">
<path d="M41.6133 31.6003V31.6V12.4V12.3997C41.6105 10.0004 40.6562 7.70017 38.9597 6.00361C37.2631 4.30705 34.9628 3.35272 32.5635 3.35H32.5633L13.3633 3.35L13.363 3.35C10.9637 3.35272 8.66342 4.30705 6.96686 6.00361C5.2703 7.70017 4.31598 10.0004 4.31326 12.3997V12.4L4.31326 31.6L4.31326 31.6003C4.31598 33.9996 5.2703 36.2998 6.96686 37.9964C8.66342 39.693 10.9637 40.6473 13.363 40.65H13.3633H32.5633H32.5635C34.9628 40.6473 37.2631 39.693 38.9597 37.9964C40.6562 36.2998 41.6105 33.9996 41.6133 31.6003ZM18.2131 14.8909C19.6191 13.9515 21.272 13.4501 22.963 13.45C25.2299 13.4526 27.4032 14.3542 29.0061 15.9572C30.609 17.5601 31.5107 19.7334 31.5133 22.0003C31.5132 23.6912 31.0118 25.3442 30.0723 26.7501C29.1328 28.1562 27.7975 29.252 26.2352 29.8992C24.6729 30.5463 22.9538 30.7156 21.2952 30.3857C19.6367 30.0558 18.1132 29.2415 16.9175 28.0458C15.7218 26.85 14.9074 25.3266 14.5775 23.668C14.2476 22.0095 14.417 20.2904 15.0641 18.7281C15.7112 17.1657 16.8071 15.8304 18.2131 14.8909ZM18.8243 28.1944C20.0494 29.0131 21.4898 29.45 22.9633 29.45C24.9391 29.45 26.8341 28.6651 28.2312 27.2679C29.6283 25.8708 30.4133 23.9759 30.4133 22C30.4133 20.5265 29.9763 19.0861 29.1577 17.861C28.3391 16.6359 27.1756 15.681 25.8142 15.1171C24.4529 14.5532 22.955 14.4057 21.5098 14.6931C20.0647 14.9806 18.7372 15.6902 17.6953 16.7321C16.6534 17.774 15.9439 19.1014 15.6564 20.5466C15.3689 21.9917 15.5165 23.4897 16.0804 24.851C16.6442 26.2123 17.5991 27.3758 18.8243 28.1944ZM13.3634 2.25H32.5631C35.2541 2.25314 37.834 3.32353 39.7369 5.22637C41.6398 7.12925 42.7102 9.70922 42.7133 12.4003V31.5997C42.7102 34.2908 41.6398 36.8708 39.7369 38.7736C37.834 40.6765 35.254 41.7469 32.563 41.75H13.3635C10.6725 41.7469 8.09251 40.6765 6.18963 38.7736C4.28679 36.8708 3.21639 34.2909 3.21326 31.5999V12.4001C3.21639 9.70913 4.28679 7.12922 6.18963 5.22637C8.09247 3.32353 10.6724 2.25314 13.3634 2.25ZM34.7133 11.6C34.7133 11.867 34.6341 12.128 34.4857 12.35C34.3374 12.572 34.1266 12.7451 33.8799 12.8472C33.6332 12.9494 33.3618 12.9762 33.0999 12.9241C32.838 12.872 32.5975 12.7434 32.4087 12.5546C32.2199 12.3658 32.0913 12.1252 32.0392 11.8634C31.9871 11.6015 32.0138 11.3301 32.116 11.0834C32.2182 10.8367 32.3912 10.6259 32.6132 10.4775C32.8352 10.3292 33.0963 10.25 33.3633 10.25C33.7213 10.25 34.0647 10.3922 34.3179 10.6454C34.571 10.8986 34.7133 11.242 34.7133 11.6Z" fill="black" stroke="white" stroke-width="0.5"/>
</svg>
