<svg width="180" height="40" viewBox="0 0 180 40" fill="none" xmlns="http://www.w3.org/2000/svg">
<path d="M171.209 -5.82312e-05V23.1698L153.843 1.63868C152.677 0.1903 150.721 -0.364221 148.956 0.248235C147.195 0.860691 146.017 2.51598 146.017 4.3699V23.2691L128.385 1.62212C127.527 0.571016 126.249 -0.0455786 124.872 0.00407998C123.51 0.0330475 122.241 0.691024 121.433 1.77524L101.599 28.4709L79.704 1.62212C78.8507 0.566877 77.5187 -0.0414404 76.1908 -5.82312e-05C74.8297 0.0330475 73.5601 0.686886 72.7526 1.7711L52.9182 28.4667L31.0275 1.62212C30.1741 0.571016 28.9462 -0.0455786 27.5143 -5.82312e-05C26.1531 0.0289093 24.8836 0.686886 24.076 1.7711L8.79125 22.3422V-5.82312e-05H0V35.6093C0 37.4963 1.21962 39.1682 3.02199 39.7599C3.47571 39.9089 3.93775 39.9792 4.39563 39.9792C5.7651 39.9792 7.08878 39.342 7.92961 38.204L17.9446 24.7299L30.4946 39.9917L37.3586 34.5292L23.3351 17.4756L27.7724 11.5083L49.6631 38.3612C50.5164 39.4123 51.7776 39.9917 53.1762 39.9792C54.5374 39.9461 55.8069 39.2923 56.6145 38.204L76.4489 11.5083L98.3396 38.3612C99.1929 39.4123 100.487 39.9917 101.853 39.9792C103.214 39.9461 104.483 39.2923 105.291 38.204L125.125 11.5083L132.735 20.8483H125.338V29.5882H139.852L146.995 38.3571C148.165 39.793 150.121 40.3475 151.878 39.7268C153.635 39.1102 154.808 37.4591 154.808 35.6052V16.8052L172.17 38.3364C173.336 39.7847 175.296 40.3434 177.057 39.7268C178.818 39.1144 179.996 37.4591 179.996 35.6052V-5.82312e-05H171.205H171.209Z" fill="#0D0000"/>
</svg>
