<svg width="365" height="80" viewBox="0 0 365 80" fill="none" xmlns="http://www.w3.org/2000/svg">
<path d="M347.173 0.000318413V46.3401L311.959 3.27779C309.595 0.381034 305.628 -0.728008 302.049 0.496904C298.479 1.72182 296.09 5.03239 296.09 8.74023V46.5387L260.336 3.24468C258.597 1.14247 256.006 -0.0907223 253.212 0.00859485C250.452 0.0665299 247.877 1.38248 246.24 3.55091L206.02 56.9422L161.622 3.24468C159.892 1.13419 157.191 -0.0824459 154.498 0.000318413C151.738 0.0665299 149.164 1.37421 147.526 3.54263L107.306 56.9339L62.9168 3.24468C61.1864 1.14247 58.6964 -0.0907223 55.7928 0.000318413C53.0327 0.0582534 50.4583 1.37421 48.8209 3.54263L17.8267 44.6848V0.000318413H0V71.219C0 74.9931 2.47312 78.3367 6.12793 79.5203C7.04796 79.8182 7.98488 79.9589 8.91335 79.9589C11.6903 79.9589 14.3745 78.6844 16.0795 76.4083L36.3877 49.4603L61.8364 79.9838L75.755 69.0589L47.3184 34.9517L56.3162 23.0171L100.706 76.7228C102.436 78.8251 104.994 79.9838 107.83 79.9589C110.59 79.8927 113.164 78.585 114.802 76.4083L155.021 23.0171L199.411 76.7228C201.141 78.8251 203.766 79.9838 206.535 79.9589C209.295 79.8927 211.869 78.585 213.507 76.4083L253.727 23.0171L269.156 41.697H254.157V59.1768H283.59L298.074 76.7146C300.446 79.5865 304.413 80.6955 307.975 79.4541C311.537 78.2209 313.917 74.9186 313.917 71.2107V33.6109L349.123 76.6732C351.486 79.5699 355.462 80.6873 359.032 79.4541C362.603 78.2292 364.992 74.9186 364.992 71.2107V0.000318413H347.165H347.173Z" fill="white"/>
</svg>
