<svg width="16" height="17" viewBox="0 0 16 17" fill="none" xmlns="http://www.w3.org/2000/svg">
<g clip-path="url(#clip0_209_2879)">
<path fill-rule="evenodd" clip-rule="evenodd" d="M14 5V14.5C14 15.0304 13.7893 15.5391 13.4142 15.9142C13.0391 16.2893 12.5304 16.5 12 16.5H11V15.5H12C12.2652 15.5 12.5196 15.3946 12.7071 15.2071C12.8946 15.0196 13 14.7652 13 14.5V5H11C10.6022 5 10.2206 4.84196 9.93934 4.56066C9.65804 4.27936 9.5 3.89782 9.5 3.5V1.5H4C3.73478 1.5 3.48043 1.60536 3.29289 1.79289C3.10536 1.98043 3 2.23478 3 2.5V11.5H2V2.5C2 1.96957 2.21071 1.46086 2.58579 1.08579C2.96086 0.710714 3.46957 0.5 4 0.5L9.5 0.5L14 5ZM1.6 12.35H0V16.349H0.791V15.007H1.594C1.88067 15.007 2.12467 14.9493 2.326 14.834C2.52933 14.7173 2.68367 14.5593 2.789 14.36C2.89879 14.1515 2.95417 13.9186 2.95 13.683C2.95 13.433 2.89733 13.2073 2.792 13.006C2.68648 12.807 2.52707 12.6417 2.332 12.529C2.132 12.409 1.888 12.3493 1.6 12.35ZM2.145 13.683C2.1484 13.8147 2.1192 13.9453 2.06 14.063C2.00692 14.1656 1.92392 14.2496 1.822 14.304C1.70551 14.3614 1.5768 14.3895 1.447 14.386H0.788V12.98H1.448C1.666 12.98 1.83667 13.0403 1.96 13.161C2.08333 13.283 2.145 13.457 2.145 13.683ZM3.362 12.35V16.349H4.822C5.22333 16.349 5.556 16.27 5.82 16.112C6.08716 15.9522 6.29577 15.7106 6.415 15.423C6.54567 15.123 6.611 14.7617 6.611 14.339C6.611 13.919 6.54567 13.5607 6.415 13.264C6.29693 12.9799 6.09038 12.7414 5.826 12.584C5.562 12.428 5.227 12.35 4.821 12.35H3.362ZM4.153 12.995H4.716C4.96333 12.995 5.16633 13.0457 5.325 13.147C5.48952 13.2555 5.61389 13.415 5.679 13.601C5.75767 13.8023 5.797 14.0533 5.797 14.354C5.8001 14.5534 5.77724 14.7524 5.729 14.946C5.69451 15.099 5.62768 15.2429 5.533 15.368C5.44599 15.4801 5.33072 15.5671 5.199 15.62C5.04465 15.6777 4.88074 15.7055 4.716 15.702H4.153V12.995ZM7.896 14.758V16.349H7.106V12.35H9.654V13.003H7.896V14.12H9.502V14.758H7.896Z" fill="white"/>
</g>
<defs>
<clipPath id="clip0_209_2879">
<rect width="16" height="16" fill="white" transform="translate(0 0.5)"/>
</clipPath>
</defs>
</svg>
