<svg width="18" height="18" viewBox="0 0 18 18" fill="none" xmlns="http://www.w3.org/2000/svg">
<path fill-rule="evenodd" clip-rule="evenodd" d="M10.3503 3.99976C10.3503 2.61976 11.4753 1.50001 12.8613 1.50001C13.1904 1.49922 13.5164 1.56325 13.8207 1.68845C14.125 1.81365 14.4017 1.99756 14.6349 2.22968C14.8681 2.4618 15.0534 2.73759 15.18 3.0413C15.3067 3.34501 15.3723 3.6707 15.373 3.99976C15.373 5.38051 14.248 6.50026 12.8613 6.50026C12.5287 6.50067 12.1994 6.43497 11.8925 6.30699C11.5855 6.17901 11.3071 5.99129 11.0733 5.75476L7.59705 8.12176C7.69386 8.60401 7.64638 9.10409 7.46055 9.55951L11.272 12.0645C11.721 11.6984 12.2828 11.4988 12.862 11.4998C13.1911 11.4991 13.5171 11.5632 13.8214 11.6885C14.1256 11.8138 14.4023 11.9978 14.6354 12.23C14.8686 12.4622 15.0537 12.738 15.1803 13.0417C15.3069 13.3455 15.3724 13.6712 15.373 14.0003C15.373 15.3803 14.248 16.5 12.8613 16.5C12.1969 16.5014 11.5591 16.2388 11.0882 15.7701C10.6173 15.3013 10.3519 14.6647 10.3503 14.0003C10.3497 13.6497 10.4236 13.3031 10.567 12.9833L6.78555 10.5C6.3276 10.8982 5.74089 11.1169 5.13405 11.1158C4.80496 11.1165 4.47894 11.0525 4.17462 10.9272C3.8703 10.802 3.59364 10.618 3.36046 10.3858C3.12727 10.1536 2.94212 9.87768 2.81559 9.57388C2.68907 9.27009 2.62364 8.94435 2.62305 8.61526C2.62374 8.28623 2.68924 7.96057 2.81581 7.65686C2.94238 7.35315 3.12754 7.07736 3.36072 6.84522C3.5939 6.61309 3.87052 6.42917 4.17479 6.30396C4.47907 6.17876 4.80502 6.11472 5.13405 6.11551C5.93205 6.11551 6.64155 6.48526 7.1013 7.06126L10.471 4.76701C10.3909 4.51916 10.3501 4.26025 10.3503 3.99976Z" fill="white"/>
</svg>
