<svg width="44" height="44" viewBox="0 0 44 44" fill="none" xmlns="http://www.w3.org/2000/svg">
<path d="M33.33 14.7401L34.1788 13.8895C34.8547 13.2134 35.7714 12.8334 36.7274 12.8333C37.6834 12.8331 38.6003 13.2127 39.2764 13.8885C39.9525 14.5644 40.3324 15.4812 40.3326 16.4371C40.3328 17.3931 39.9532 18.31 39.2773 18.9861L38.4285 19.8368M33.33 14.7401C33.33 14.7401 33.4363 16.5441 35.0295 18.1373C36.6227 19.7305 38.4285 19.8368 38.4285 19.8368M33.33 14.7401L25.52 22.5501C24.9883 23.0781 24.7243 23.344 24.497 23.6355C24.2293 23.9801 24.0002 24.3505 23.8113 24.7465C23.6518 25.0801 23.5345 25.434 23.298 26.1435L22.5408 28.4168L22.2952 29.152M38.4285 19.8368L30.6185 27.6468C30.0868 28.1785 29.8228 28.4425 29.5313 28.6698C29.1867 28.9375 28.8163 29.1666 28.4203 29.3555C28.0867 29.515 27.7328 29.6323 27.0233 29.8688L24.75 30.626L24.0148 30.8716M22.2952 29.152L22.0513 29.889C21.9945 30.06 21.9864 30.2435 22.028 30.4189C22.0695 30.5943 22.159 30.7547 22.2864 30.8822C22.4139 31.0096 22.5743 31.0991 22.7497 31.1407C22.9251 31.1822 23.1086 31.1741 23.2797 31.1173L24.0148 30.8716M22.2952 29.152L24.0148 30.8716" stroke="black" stroke-width="1.5"/>
<path d="M14.667 23.8333H19.2503M14.667 16.5H26.5837M14.667 31.1667H17.417" stroke="black" stroke-width="1.5" stroke-linecap="round"/>
<path opacity="0.5" d="M5.5 18.3334C5.5 11.4199 5.5 7.96225 7.64867 5.81541C9.7955 3.66675 13.2532 3.66675 20.1667 3.66675H23.8333C30.7468 3.66675 34.2045 3.66675 36.3513 5.81541C38.5 7.96225 38.5 11.4199 38.5 18.3334V25.6667C38.5 32.5802 38.5 36.0379 36.3513 38.1847C34.2045 40.3334 30.7468 40.3334 23.8333 40.3334H20.1667C13.2532 40.3334 9.7955 40.3334 7.64867 38.1847C5.5 36.0379 5.5 32.5802 5.5 25.6667V18.3334Z" stroke="black" stroke-width="1.5"/>
</svg>
