<svg width="44" height="44" viewBox="0 0 44 44" fill="none" xmlns="http://www.w3.org/2000/svg">
<path d="M3.66699 11.0001C3.66699 8.43341 3.66699 7.15008 4.16566 6.16925C4.60516 5.3064 5.30664 4.60491 6.16949 4.16541C7.15033 3.66675 8.43366 3.66675 11.0003 3.66675C13.567 3.66675 14.8503 3.66675 15.8312 4.16541C16.694 4.60491 17.3955 5.3064 17.835 6.16925C18.3337 7.15008 18.3337 8.43341 18.3337 11.0001V33.0001C18.3337 35.5667 18.3337 36.8501 17.835 37.8309C17.3952 38.6931 16.6937 39.3939 15.8312 39.8329C14.8503 40.3334 13.567 40.3334 11.0003 40.3334C8.43366 40.3334 7.15033 40.3334 6.16949 39.8329C5.30692 39.3939 4.60547 38.6931 4.16566 37.8309C3.66699 36.8501 3.66699 35.5667 3.66699 33.0001V11.0001Z" stroke="black" stroke-width="1.5"/>
<path opacity="0.5" d="M12.8337 34.8335H9.16699" stroke="black" stroke-width="1.5" stroke-linecap="round"/>
<path d="M24.4097 9.0367L20.4827 12.9637C19.423 14.0234 18.8932 14.5532 18.6127 15.2279C18.334 15.9007 18.334 16.6505 18.334 18.1502V35.8529L34.779 19.4079C36.594 17.5929 37.5033 16.6854 37.8425 15.6385C38.1416 14.718 38.1416 13.7265 37.8425 12.806C37.5033 11.761 36.5958 10.8517 34.7808 9.0367C32.9658 7.2217 32.0565 6.3142 31.0115 5.97503C30.091 5.67597 29.0995 5.67597 28.179 5.97503C27.1322 6.3142 26.2247 7.2217 24.4097 9.0367Z" stroke="black" stroke-width="1.5"/>
<path opacity="0.5" d="M11 40.3334H33C35.5667 40.3334 36.85 40.3334 37.8308 39.8329C38.6927 39.3936 39.3935 38.6928 39.8328 37.8309C40.3333 36.8501 40.3333 35.5667 40.3333 33.0001C40.3333 30.4334 40.3333 29.1501 39.8328 28.1692C39.3935 27.3074 38.6927 26.6066 37.8308 26.1672C36.85 25.6667 35.5667 25.6667 33 25.6667H28.4167" stroke="black" stroke-width="1.5"/>
</svg>
