<svg width="44" height="44" viewBox="0 0 44 44" fill="none" xmlns="http://www.w3.org/2000/svg">
<path d="M7.69629 39.7431L9.16662 39.2536L13.7133 37.7374C15.1323 37.2644 15.84 37.0279 16.5091 36.7107C17.2975 36.3349 18.0418 35.8747 18.7293 35.3376C19.3123 34.8829 19.8421 34.3531 20.9 33.2952L36.5218 17.6734L38.2213 15.9739C39.5732 14.6219 40.3328 12.7883 40.3328 10.8763C40.3328 8.96434 39.5732 7.13069 38.2213 5.77872C36.8693 4.42676 35.0357 3.66724 33.1237 3.66724C31.2117 3.66724 29.3781 4.42676 28.0261 5.77872L26.3266 7.47822L10.7048 23.0982C9.64695 24.1579 9.11712 24.6877 8.66245 25.2707C8.12548 25.9587 7.66505 26.7032 7.28929 27.4909C6.97212 28.1582 6.73562 28.8696 6.26262 30.2886L4.74645 34.8334L4.25695 36.3037M7.69629 39.7431L6.22595 40.2344C5.88322 40.3493 5.51522 40.3664 5.16333 40.2836C4.81144 40.2009 4.4896 40.0216 4.23398 39.766C3.97837 39.5104 3.79912 39.1886 3.71638 38.8367C3.63364 38.4848 3.6507 38.1168 3.76562 37.7741L4.25695 36.3037M7.69629 39.7431L4.25695 36.3037" stroke="black" stroke-width="1.5"/>
<path opacity="0.5" d="M26.3269 7.47803C26.3269 7.47803 26.5396 11.0897 29.7259 14.2742C32.9122 17.4605 36.5202 17.6732 36.5202 17.6732" stroke="black" stroke-width="1.5"/>
<path d="M30.9998 27.5L35.7027 22.797C36.1266 22.3731 36.8258 22.4149 37.1961 22.8863L39.7653 26.1561C41.0341 27.7709 40.8739 30.0842 39.3946 31.5087L31.3272 39.2773C29.7571 40.7892 27.2655 40.7657 25.7242 39.2244L21.9998 35.5" stroke="#7F7F7F" stroke-width="1.5" stroke-linecap="round"/>
<path d="M16.0036 12.8314L20.9742 8.4123C21.4223 8.01397 21.4216 7.31362 20.9727 6.91621L17.8592 4.15974C16.3216 2.79844 14.0029 2.82272 12.4941 4.21591L4.26576 11.8138C2.66433 13.2926 2.54168 15.7812 3.98993 17.4103L7.48954 21.3467" stroke="#7F7F7F" stroke-width="1.5" stroke-linecap="round"/>
</svg>
