<svg width="250" height="188" viewBox="0 0 250 188" fill="none" xmlns="http://www.w3.org/2000/svg">
<path fill-rule="evenodd" clip-rule="evenodd" d="M89.65 110.425L125.025 134.613L159.125 111.088L235.562 186.5C233.55 187.15 231.4 187.5 229.163 187.5H20.8375C18.0875 187.5 15.4625 186.962 13.05 186L89.65 110.425ZM250 48.45V166.663C250 169.75 249.325 172.675 248.125 175.312L173.2 101.387L250 48.45ZM1.1795e-05 49.1125L75.525 100.762L1.32501 173.988C0.446209 171.645 -0.00265292 169.164 1.1795e-05 166.663V49.1125ZM229.163 0C240.663 0 250 9.325 250 20.8375V28.1625L124.975 114.35L1.1795e-05 28.875V20.8375C1.1795e-05 9.3375 9.32501 0 20.8375 0H229.163Z" fill="#A59389"/>
</svg>
