<svg width="80" height="16" viewBox="0 0 80 16" fill="none" xmlns="http://www.w3.org/2000/svg">
<g clip-path="url(#clip0_112_38)">
<path d="M12.0895 11.8752L14.1887 1.34732H16.5409L13.3922 15.3332H11.1243L8.52837 5.12236L5.87626 15.3332H3.599L0.450195 1.34732H2.80243L4.92037 11.856L7.52563 1.34732H9.51237L12.0895 11.8752ZM22.22 15.5254C20.7768 15.5254 19.6054 15.0611 18.7057 14.1325C17.8123 13.1976 17.3656 11.9552 17.3656 10.4055V10.1173C17.3656 9.07991 17.5593 8.15458 17.9466 7.34131C18.3403 6.5216 18.8901 5.88442 19.596 5.42974C20.302 4.97508 21.0892 4.74774 21.9576 4.74774C23.3384 4.74774 24.4036 5.19921 25.1533 6.10214C25.9092 7.00511 26.2873 8.28264 26.2873 9.93484V10.8762H19.6616C19.7304 11.7343 20.0084 12.4131 20.4957 12.9126C20.9892 13.4121 21.6078 13.6618 22.3513 13.6618C23.3946 13.6618 24.2443 13.2296 24.9003 12.365L26.1279 13.5658C25.7219 14.187 25.1783 14.6704 24.4973 15.0162C23.8225 15.3556 23.0635 15.5254 22.22 15.5254ZM21.9483 6.62086C21.3235 6.62086 20.8175 6.84498 20.4301 7.29324C20.049 7.74151 19.8053 8.36591 19.6991 9.16638H24.0381V8.99344C23.9881 8.21218 23.7851 7.62304 23.429 7.22604C23.0728 6.82258 22.5793 6.62086 21.9483 6.62086ZM36.9613 10.2422C36.9613 11.856 36.6083 13.1399 35.9023 14.0941C35.2026 15.0482 34.2373 15.5254 33.0065 15.5254C31.8195 15.5254 30.8949 15.0867 30.2326 14.2094L30.1202 15.3332H28.0584V0.578857H30.3357V5.93885C30.9917 5.14478 31.8757 4.74774 32.9878 4.74774C34.2248 4.74774 35.1963 5.21842 35.9023 6.15978C36.6083 7.10111 36.9613 8.41711 36.9613 10.1077V10.2422ZM34.6841 10.0405C34.6841 8.91344 34.4904 8.06811 34.103 7.50458C33.7157 6.94104 33.1534 6.65928 32.4162 6.65928C31.429 6.65928 30.7355 7.10111 30.3357 7.98484V12.269C30.7418 13.172 31.4415 13.6234 32.4349 13.6234C33.1472 13.6234 33.6969 13.3512 34.0843 12.8069C34.4716 12.2626 34.6715 11.4397 34.6841 10.3382V10.0405ZM48.9567 3.30688H44.7021V15.3332H42.3499V3.30688H38.1327V1.34732H48.9567V3.30688ZM56.0603 14.315C55.3918 15.1219 54.4421 15.5254 53.2114 15.5254C52.1118 15.5254 51.2778 15.1956 50.7092 14.536C50.1469 13.8764 49.8658 12.9222 49.8658 11.6734V4.93986H52.143V11.6446C52.143 12.9638 52.6772 13.6234 53.7455 13.6234C54.8514 13.6234 55.598 13.2168 55.9853 12.4035V4.93986H58.2625V15.3332H56.1165L56.0603 14.315ZM62.6953 4.93986L62.7609 6.14057C63.5106 5.21202 64.4946 4.74774 65.7129 4.74774C67.8248 4.74774 68.8992 5.98688 68.937 8.46518V15.3332H66.6592V8.59964C66.6592 7.94004 66.5187 7.45338 66.2378 7.13958C65.9626 6.81938 65.51 6.65928 64.8788 6.65928C63.9604 6.65928 63.2763 7.08511 62.8264 7.93684V15.3332H60.5492V4.93986H62.6953ZM75.7311 15.5254C74.2878 15.5254 73.1165 15.0611 72.2169 14.1325C71.3233 13.1976 70.8765 11.9552 70.8765 10.4055V10.1173C70.8765 9.07991 71.0703 8.15458 71.4573 7.34131C71.8514 6.5216 72.401 5.88442 73.1067 5.42974C73.813 4.97508 74.6 4.74774 75.4683 4.74774C76.8491 4.74774 77.9145 5.19921 78.6644 6.10214C79.4202 7.00511 79.7981 8.28264 79.7981 9.93484V10.8762H73.1724C73.2413 11.7343 73.5191 12.4131 74.0069 12.9126C74.4999 13.4121 75.1184 13.6618 75.8618 13.6618C76.9057 13.6618 77.7552 13.2296 78.4114 12.365L79.6387 13.5658C79.2329 14.187 78.6891 14.6704 78.0082 15.0162C77.3337 15.3556 76.5747 15.5254 75.7311 15.5254ZM75.4592 6.62086C74.8342 6.62086 74.3282 6.84498 73.9412 7.29324C73.56 7.74151 73.3161 8.36591 73.2101 9.16638H77.549V8.99344C77.4989 8.21218 77.296 7.62304 76.9396 7.22604C76.5838 6.82258 76.0901 6.62086 75.4592 6.62086Z" fill="black"/>
</g>
<defs>
<clipPath id="clip0_112_38">
<rect width="80" height="16" fill="white"/>
</clipPath>
</defs>
</svg>
