<svg width="30" height="30" viewBox="0 0 30 30" fill="none" xmlns="http://www.w3.org/2000/svg">
<path d="M14.9993 0.666687C7.07598 0.675354 0.659311 7.10535 0.667978 15.0287C0.670004 17.4331 1.27685 19.7983 2.43264 21.9067L1.33264 28.6667L8.09264 27.5667C15.0326 31.3734 23.746 28.834 27.5526 21.8934C31.3593 14.9527 28.8206 6.24069 21.88 2.43335C19.7712 1.27654 17.4045 0.668991 14.9993 0.666687ZM7.83264 7.18002H11.7393C11.9161 7.18002 12.0857 7.25026 12.2107 7.37528C12.3357 7.50031 12.406 7.66988 12.406 7.84669C12.3841 8.73575 12.5335 9.62073 12.846 10.4534C12.9805 10.7321 13.0101 11.05 12.9293 11.3487C12.8485 11.6475 12.6627 11.9071 12.406 12.08L11.0393 13.4134C11.6453 14.5967 12.4376 15.6749 13.386 16.6067C14.3102 17.5705 15.384 18.3787 16.566 19L17.8993 17.6334C18.566 16.9667 18.8726 16.9667 19.526 17.1934C20.3586 17.5058 21.2436 17.6552 22.1326 17.6334C22.3068 17.6415 22.4717 17.7143 22.595 17.8376C22.7184 17.9609 22.7912 18.1258 22.7993 18.3V22.2067C22.7912 22.3809 22.7184 22.5458 22.595 22.6691C22.4717 22.7924 22.3068 22.8652 22.1326 22.8734C18.211 22.7025 14.4937 21.0768 11.706 18.3134C8.93823 15.5285 7.31173 11.8095 7.14598 7.88669C7.14756 7.70319 7.21981 7.52735 7.34769 7.39575C7.47558 7.26414 7.64926 7.18687 7.83264 7.18002Z" stroke="black" stroke-width="0.727273" stroke-linecap="round" stroke-linejoin="round"/>
</svg>
