<svg width="45" height="44" viewBox="0 0 45 44" fill="none" xmlns="http://www.w3.org/2000/svg">
<path d="M22.7986 2.2915C11.904 2.30342 3.08105 11.1447 3.09297 22.0393C3.09575 25.3453 3.93016 28.5975 5.51939 31.4965L4.00689 40.7915L13.3019 39.279C22.8444 44.5132 34.8252 41.0216 40.0594 31.4782C45.2936 21.9348 41.8029 9.95575 32.2595 4.72067C29.3599 3.13005 26.1058 2.29467 22.7986 2.2915ZM12.9444 11.2473H18.3161C18.5592 11.2473 18.7923 11.3439 18.9642 11.5158C19.1361 11.6877 19.2327 11.9209 19.2327 12.164C19.2026 13.3865 19.408 14.6033 19.8377 15.7482C20.0228 16.1314 20.0634 16.5685 19.9523 16.9793C19.8412 17.3901 19.5857 17.7471 19.2327 17.9848L17.3536 19.8182C18.1868 21.4453 19.2762 22.9278 20.5802 24.209C21.851 25.5342 23.3275 26.6455 24.9527 27.4998L26.7861 25.6207C27.7027 24.704 28.1244 24.704 29.0227 25.0157C30.1676 25.4453 31.3844 25.6507 32.6069 25.6207C32.8464 25.6318 33.0731 25.732 33.2427 25.9015C33.4122 26.0711 33.5124 26.2978 33.5236 26.5373V31.909C33.5124 32.1485 33.4122 32.3753 33.2427 32.5448C33.0731 32.7144 32.8464 32.8145 32.6069 32.8257C27.2147 32.5907 22.1034 30.3554 18.2702 26.5557C14.4646 22.7265 12.2281 17.6128 12.0002 12.219C12.0024 11.9667 12.1017 11.7249 12.2776 11.544C12.4534 11.363 12.6922 11.2568 12.9444 11.2473Z" stroke="black" stroke-width="0.727273" stroke-linecap="round" stroke-linejoin="round"/>
</svg>
